<svg xmlns="http://www.w3.org/2000/svg" xmlns:xlink="http://www.w3.org/1999/xlink" width="48" zoomAndPan="magnify" viewBox="0 0 36 36.000001" height="48" preserveAspectRatio="xMidYMid meet" version="1.0"><defs><g/><clipPath id="d2ffb3e280"><path d="M 0.488281 0 L 35.511719 0 L 35.511719 35.027344 L 0.488281 35.027344 Z M 0.488281 0 " clip-rule="nonzero"/></clipPath><clipPath id="085ca552ba"><path d="M 6.378906 5.890625 L 29.730469 5.890625 L 29.730469 29.242188 L 6.378906 29.242188 Z M 6.378906 5.890625 " clip-rule="nonzero"/></clipPath></defs><g clip-path="url(#d2ffb3e280)"><path fill="#ffffff" d="M 0.488281 0 L 35.511719 0 L 35.511719 42.324219 L 0.488281 42.324219 Z M 0.488281 0 " fill-opacity="1" fill-rule="nonzero"/><path fill="#ffffff" d="M 0.488281 0 L 35.511719 0 L 35.511719 35.027344 L 0.488281 35.027344 Z M 0.488281 0 " fill-opacity="1" fill-rule="nonzero"/><path fill="#ffffff" d="M 0.488281 0 L 35.511719 0 L 35.511719 35.027344 L 0.488281 35.027344 Z M 0.488281 0 " fill-opacity="1" fill-rule="nonzero"/></g><g clip-path="url(#085ca552ba)"><path fill="#000000" d="M 18.054688 29.242188 C 11.617188 29.242188 6.378906 24.003906 6.378906 17.566406 C 6.378906 11.132812 11.617188 5.890625 18.054688 5.890625 C 24.492188 5.890625 29.730469 11.132812 29.730469 17.566406 C 29.730469 24.003906 24.492188 29.242188 18.054688 29.242188 Z M 18.054688 6.066406 C 11.710938 6.066406 6.550781 11.222656 6.550781 17.566406 C 6.550781 23.910156 11.710938 29.070312 18.054688 29.070312 C 24.398438 29.070312 29.558594 23.910156 29.558594 17.566406 C 29.558594 11.222656 24.398438 6.066406 18.054688 6.066406 Z M 18.054688 6.066406 " fill-opacity="1" fill-rule="nonzero"/></g><g fill="#fd6155" fill-opacity="0.302"><g transform="translate(10.292547, 24.439948)"><g><path d="M 8.546875 -4.507812 C 7.898438 -2.648438 5.96875 -1.773438 4.28125 -1.773438 C 2.984375 -1.773438 2.28125 -2.464844 2.28125 -3.421875 C 2.28125 -4.675781 3.042969 -5.378906 4.421875 -5.378906 C 4.898438 -5.097656 5.308594 -4.96875 5.660156 -4.96875 C 6.503906 -4.96875 6.96875 -5.660156 6.96875 -6.324219 C 6.96875 -6.898438 6.617188 -7.460938 5.828125 -7.492188 C 4.984375 -7.492188 4.546875 -8.066406 4.546875 -8.730469 C 4.546875 -9.644531 5.070312 -10.335938 6 -10.335938 C 6.433594 -10.335938 6.855469 -10.027344 6.957031 -9.6875 C 7.152344 -8.984375 7.546875 -8.660156 8.039062 -8.660156 C 8.53125 -8.660156 9.011719 -8.996094 9.054688 -9.617188 C 9.136719 -11.109375 7.800781 -12.222656 6.039062 -12.222656 C 4.027344 -12.222656 2.28125 -10.617188 2.28125 -8.671875 C 2.28125 -8.082031 2.476562 -7.5625 2.832031 -7.140625 C 0.730469 -6.746094 -0.0273438 -4.800781 -0.0273438 -3.308594 C -0.0273438 -1.40625 1.660156 0 4.238281 0 C 6.871094 0 9.433594 -1.507812 10.25 -4.183594 C 10.292969 -4.292969 10.308594 -4.40625 10.308594 -4.507812 C 10.308594 -5 9.914062 -5.265625 9.492188 -5.265625 C 9.097656 -5.265625 8.6875 -5.027344 8.546875 -4.507812 Z M 8.546875 -4.507812 "/></g></g></g><g fill="#fd6155" fill-opacity="0.302"><g transform="translate(18.205123, 24.439948)"><g><path d="M 6.984375 -12.222656 C 5.589844 -12.222656 4.183594 -11.433594 3.71875 -10.011719 C 3.632812 -9.730469 3.578125 -9.460938 3.578125 -9.195312 C 3.578125 -7.96875 4.421875 -7.039062 5.222656 -6.054688 C 5.886719 -5.253906 6.503906 -4.589844 6.503906 -3.746094 C 6.503906 -2.605469 5.503906 -1.914062 4.589844 -1.914062 C 3.578125 -1.929688 2.773438 -2.519531 2.789062 -3.519531 C 2.800781 -3.589844 2.800781 -3.660156 2.800781 -3.71875 C 2.800781 -4.519531 2.265625 -4.886719 1.71875 -4.886719 C 1.15625 -4.886719 0.578125 -4.476562 0.578125 -3.6875 C 0.507812 -1.449219 2.476562 0 4.605469 0 C 6.855469 0 8.898438 -1.773438 8.898438 -3.941406 C 8.898438 -5.40625 7.925781 -6.535156 7.070312 -7.492188 L 6.898438 -7.675781 C 6.363281 -8.25 5.941406 -8.886719 5.941406 -9.40625 C 5.941406 -10.027344 6.660156 -10.292969 6.984375 -10.277344 C 7.421875 -10.25 7.730469 -9.941406 7.96875 -9.460938 C 8.152344 -9.027344 8.519531 -8.828125 8.898438 -8.828125 C 9.40625 -8.828125 9.914062 -9.207031 9.914062 -9.855469 C 9.914062 -9.996094 9.898438 -10.125 9.855469 -10.277344 C 9.53125 -11.378906 8.421875 -12.222656 6.984375 -12.222656 Z M 6.984375 -12.222656 "/></g></g></g><g fill="#fd6155" fill-opacity="0.502"><g transform="translate(9.770039, 23.603759)"><g><path d="M 8.546875 -4.507812 C 7.898438 -2.648438 5.96875 -1.773438 4.28125 -1.773438 C 2.984375 -1.773438 2.28125 -2.464844 2.28125 -3.421875 C 2.28125 -4.675781 3.042969 -5.378906 4.421875 -5.378906 C 4.898438 -5.097656 5.308594 -4.96875 5.660156 -4.96875 C 6.503906 -4.96875 6.96875 -5.660156 6.96875 -6.324219 C 6.96875 -6.898438 6.617188 -7.460938 5.828125 -7.492188 C 4.984375 -7.492188 4.546875 -8.066406 4.546875 -8.730469 C 4.546875 -9.644531 5.070312 -10.335938 6 -10.335938 C 6.433594 -10.335938 6.855469 -10.027344 6.957031 -9.6875 C 7.152344 -8.984375 7.546875 -8.660156 8.039062 -8.660156 C 8.53125 -8.660156 9.011719 -8.996094 9.054688 -9.617188 C 9.136719 -11.109375 7.800781 -12.222656 6.039062 -12.222656 C 4.027344 -12.222656 2.28125 -10.617188 2.28125 -8.671875 C 2.28125 -8.082031 2.476562 -7.5625 2.832031 -7.140625 C 0.730469 -6.746094 -0.0273438 -4.800781 -0.0273438 -3.308594 C -0.0273438 -1.40625 1.660156 0 4.238281 0 C 6.871094 0 9.433594 -1.507812 10.25 -4.183594 C 10.292969 -4.292969 10.308594 -4.40625 10.308594 -4.507812 C 10.308594 -5 9.914062 -5.265625 9.492188 -5.265625 C 9.097656 -5.265625 8.6875 -5.027344 8.546875 -4.507812 Z M 8.546875 -4.507812 "/></g></g></g><g fill="#fd6155" fill-opacity="0.502"><g transform="translate(17.682614, 23.603759)"><g><path d="M 6.984375 -12.222656 C 5.589844 -12.222656 4.183594 -11.433594 3.71875 -10.011719 C 3.632812 -9.730469 3.578125 -9.460938 3.578125 -9.195312 C 3.578125 -7.96875 4.421875 -7.039062 5.222656 -6.054688 C 5.886719 -5.253906 6.503906 -4.589844 6.503906 -3.746094 C 6.503906 -2.605469 5.503906 -1.914062 4.589844 -1.914062 C 3.578125 -1.929688 2.773438 -2.519531 2.789062 -3.519531 C 2.800781 -3.589844 2.800781 -3.660156 2.800781 -3.71875 C 2.800781 -4.519531 2.265625 -4.886719 1.71875 -4.886719 C 1.15625 -4.886719 0.578125 -4.476562 0.578125 -3.6875 C 0.507812 -1.449219 2.476562 0 4.605469 0 C 6.855469 0 8.898438 -1.773438 8.898438 -3.941406 C 8.898438 -5.40625 7.925781 -6.535156 7.070312 -7.492188 L 6.898438 -7.675781 C 6.363281 -8.25 5.941406 -8.886719 5.941406 -9.40625 C 5.941406 -10.027344 6.660156 -10.292969 6.984375 -10.277344 C 7.421875 -10.25 7.730469 -9.941406 7.96875 -9.460938 C 8.152344 -9.027344 8.519531 -8.828125 8.898438 -8.828125 C 9.40625 -8.828125 9.914062 -9.207031 9.914062 -9.855469 C 9.914062 -9.996094 9.898438 -10.125 9.855469 -10.277344 C 9.53125 -11.378906 8.421875 -12.222656 6.984375 -12.222656 Z M 6.984375 -12.222656 "/></g></g></g><g fill="#451e60" fill-opacity="1"><g transform="translate(9.24753, 22.76757)"><g><path d="M 8.546875 -4.507812 C 7.898438 -2.648438 5.96875 -1.773438 4.28125 -1.773438 C 2.984375 -1.773438 2.28125 -2.464844 2.28125 -3.421875 C 2.28125 -4.675781 3.042969 -5.378906 4.421875 -5.378906 C 4.898438 -5.097656 5.308594 -4.96875 5.660156 -4.96875 C 6.503906 -4.96875 6.96875 -5.660156 6.96875 -6.324219 C 6.96875 -6.898438 6.617188 -7.460938 5.828125 -7.492188 C 4.984375 -7.492188 4.546875 -8.066406 4.546875 -8.730469 C 4.546875 -9.644531 5.070312 -10.335938 6 -10.335938 C 6.433594 -10.335938 6.855469 -10.027344 6.957031 -9.6875 C 7.152344 -8.984375 7.546875 -8.660156 8.039062 -8.660156 C 8.53125 -8.660156 9.011719 -8.996094 9.054688 -9.617188 C 9.136719 -11.109375 7.800781 -12.222656 6.039062 -12.222656 C 4.027344 -12.222656 2.28125 -10.617188 2.28125 -8.671875 C 2.28125 -8.082031 2.476562 -7.5625 2.832031 -7.140625 C 0.730469 -6.746094 -0.0273438 -4.800781 -0.0273438 -3.308594 C -0.0273438 -1.40625 1.660156 0 4.238281 0 C 6.871094 0 9.433594 -1.507812 10.25 -4.183594 C 10.292969 -4.292969 10.308594 -4.40625 10.308594 -4.507812 C 10.308594 -5 9.914062 -5.265625 9.492188 -5.265625 C 9.097656 -5.265625 8.6875 -5.027344 8.546875 -4.507812 Z M 8.546875 -4.507812 "/></g></g></g><g fill="#451e60" fill-opacity="1"><g transform="translate(17.160105, 22.76757)"><g><path d="M 6.984375 -12.222656 C 5.589844 -12.222656 4.183594 -11.433594 3.71875 -10.011719 C 3.632812 -9.730469 3.578125 -9.460938 3.578125 -9.195312 C 3.578125 -7.96875 4.421875 -7.039062 5.222656 -6.054688 C 5.886719 -5.253906 6.503906 -4.589844 6.503906 -3.746094 C 6.503906 -2.605469 5.503906 -1.914062 4.589844 -1.914062 C 3.578125 -1.929688 2.773438 -2.519531 2.789062 -3.519531 C 2.800781 -3.589844 2.800781 -3.660156 2.800781 -3.71875 C 2.800781 -4.519531 2.265625 -4.886719 1.71875 -4.886719 C 1.15625 -4.886719 0.578125 -4.476562 0.578125 -3.6875 C 0.507812 -1.449219 2.476562 0 4.605469 0 C 6.855469 0 8.898438 -1.773438 8.898438 -3.941406 C 8.898438 -5.40625 7.925781 -6.535156 7.070312 -7.492188 L 6.898438 -7.675781 C 6.363281 -8.25 5.941406 -8.886719 5.941406 -9.40625 C 5.941406 -10.027344 6.660156 -10.292969 6.984375 -10.277344 C 7.421875 -10.25 7.730469 -9.941406 7.96875 -9.460938 C 8.152344 -9.027344 8.519531 -8.828125 8.898438 -8.828125 C 9.40625 -8.828125 9.914062 -9.207031 9.914062 -9.855469 C 9.914062 -9.996094 9.898438 -10.125 9.855469 -10.277344 C 9.53125 -11.378906 8.421875 -12.222656 6.984375 -12.222656 Z M 6.984375 -12.222656 "/></g></g></g></svg>