<svg xmlns="http://www.w3.org/2000/svg" xmlns:xlink="http://www.w3.org/1999/xlink" width="600" zoomAndPan="magnify" viewBox="0 0 450 449.999984" height="600" preserveAspectRatio="xMidYMid meet" version="1.0"><defs><g/><clipPath id="f09b4846a0"><path d="M 372 208 L 428.675781 208 L 428.675781 266 L 372 266 Z M 372 208 " clip-rule="nonzero"/></clipPath><clipPath id="a880c0df78"><path d="M 254 3.859375 L 322 3.859375 L 322 72 L 254 72 Z M 254 3.859375 " clip-rule="nonzero"/></clipPath></defs><path fill="#e86b57" d="M 299.050781 386.421875 C 298.226562 385.554688 297.070312 385.082031 295.859375 385.117188 L 266.132812 386.039062 C 264.957031 386.078125 263.851562 386.597656 263.082031 387.492188 C 262.304688 388.378906 261.9375 389.539062 262.058594 390.714844 L 267.191406 439.121094 C 267.425781 441.277344 269.246094 442.902344 271.398438 442.902344 L 271.53125 442.890625 L 292.230469 442.246094 C 294.382812 442.183594 296.144531 440.515625 296.3125 438.359375 L 300.199219 389.679688 C 300.296875 388.472656 299.878906 387.300781 299.050781 386.421875 " fill-opacity="1" fill-rule="nonzero"/><path fill="#e86b57" d="M 151.1875 359.488281 C 150.363281 358.636719 149.234375 358.164062 148.027344 358.210938 L 118.304688 359.140625 C 117.144531 359.179688 116.042969 359.6875 115.269531 360.5625 C 114.496094 361.433594 114.117188 362.582031 114.226562 363.738281 L 119.804688 426.359375 C 119.988281 428.542969 121.828125 430.214844 124.003906 430.214844 L 124.140625 430.207031 L 144.847656 429.570312 C 147.035156 429.5 148.808594 427.761719 148.9375 425.574219 L 152.375 362.671875 C 152.445312 361.484375 152.015625 360.328125 151.1875 359.488281 " fill-opacity="1" fill-rule="nonzero"/><path fill="#f4a18f" d="M 349.441406 366.316406 C 348.617188 365.449219 347.488281 364.945312 346.246094 365.003906 L 299.929688 366.453125 C 298.761719 366.488281 297.644531 367.011719 296.878906 367.898438 C 296.109375 368.785156 295.738281 369.953125 295.859375 371.125 L 303.855469 446.539062 C 304.09375 448.695312 305.90625 450.320312 308.058594 450.320312 L 308.199219 450.320312 L 340.453125 449.320312 C 342.597656 449.25 344.359375 447.574219 344.53125 445.421875 L 350.59375 369.574219 C 350.6875 368.371094 350.269531 367.1875 349.441406 366.316406 " fill-opacity="1" fill-rule="nonzero"/><path fill="#f4a18f" d="M 199.425781 363.847656 C 198.605469 362.980469 197.460938 362.472656 196.230469 362.542969 L 149.921875 363.976562 C 148.742188 364.023438 147.628906 364.539062 146.863281 365.425781 C 146.089844 366.316406 145.722656 367.484375 145.84375 368.652344 L 153.847656 444.074219 C 154.074219 446.226562 155.898438 447.851562 158.039062 447.851562 L 158.175781 447.851562 L 190.433594 446.847656 C 192.589844 446.777344 194.347656 445.105469 194.515625 442.953125 L 200.574219 367.105469 C 200.667969 365.902344 200.261719 364.71875 199.425781 363.847656 " fill-opacity="1" fill-rule="nonzero"/><path fill="#f4a18f" d="M 223.363281 181.613281 C 157.414062 187.773438 102.800781 220.242188 78.148438 262.574219 C 73.964844 269.203125 74.125 268.074219 70.496094 278.433594 C 65.269531 292.050781 63.046875 306.398438 64.414062 321.023438 C 70.777344 389.207031 152.25 437.363281 246.398438 428.566406 C 340.550781 419.773438 393.972656 374.058594 393.972656 300.578125 C 393.972656 229.070312 317.507812 172.816406 223.363281 181.613281 " fill-opacity="1" fill-rule="nonzero"/><path fill="#e86b57" d="M 114.179688 331.164062 C 113.738281 319.144531 101.417969 308.304688 82.546875 305.253906 L 85.496094 305.800781 C 99.058594 308.753906 109.320312 319.132812 109.8125 331.753906 C 110.359375 345.78125 98.667969 357.597656 83.019531 359.773438 C 82.964844 359.925781 80.835938 359.925781 80.773438 360.078125 C 107.152344 356.945312 114.707031 345.355469 114.179688 331.164062 " fill-opacity="1" fill-rule="nonzero"/><path fill="#f6af98" d="M 109.8125 331.753906 C 110.40625 347.015625 96.527344 359.742188 78.800781 360.179688 C 61.089844 360.621094 46.246094 348.609375 45.644531 333.347656 C 45.054688 318.09375 58.9375 305.382812 76.648438 304.933594 C 94.375 304.5 109.21875 316.5 109.8125 331.753906 " fill-opacity="1" fill-rule="nonzero"/><path fill="#f4a18f" d="M 120.078125 179.042969 C 141.574219 179.042969 158.949219 203.066406 158.949219 203.066406 C 158.949219 203.394531 143.539062 199.097656 108.574219 229.070312 C 110.664062 227.28125 111.324219 224.25 112.359375 221.609375 C 117.75 207.554688 100.625 185.199219 103.179688 182.824219 C 105.742188 180.449219 115.671875 179.042969 120.078125 179.042969 " fill-opacity="1" fill-rule="evenodd"/><path fill="#e86b57" d="M 181.105469 212.519531 C 202.265625 208.699219 223.628906 229.242188 223.628906 229.242188 C 199.210938 232.40625 181.082031 255.777344 181.082031 255.777344 C 183.882812 241 163.0625 222.050781 165.15625 219.25 C 167.253906 216.460938 176.78125 213.308594 181.105469 212.519531 " fill-opacity="1" fill-rule="evenodd"/><path fill="#351f17" d="M 133.859375 278.308594 C 136.710938 278.308594 138.984375 284.6875 138.984375 292.507812 C 138.984375 300.34375 136.710938 306.71875 133.859375 306.71875 C 131.011719 306.71875 128.679688 300.34375 128.679688 292.507812 C 128.679688 284.6875 131.011719 278.308594 133.859375 278.308594 " fill-opacity="1" fill-rule="evenodd"/><path fill="#351f17" d="M 94.601562 267.359375 C 97.449219 267.359375 99.734375 273.730469 99.734375 281.550781 C 99.734375 289.390625 97.449219 295.761719 94.601562 295.761719 C 91.753906 295.761719 89.421875 289.390625 89.421875 281.550781 C 89.421875 273.730469 91.753906 267.359375 94.601562 267.359375 " fill-opacity="1" fill-rule="evenodd"/><path fill="#e86b57" d="M 61.019531 332.398438 C 61.066406 329.632812 63.363281 327.429688 66.152344 327.476562 C 68.9375 327.519531 71.167969 329.792969 71.121094 332.5625 C 71.078125 335.320312 68.78125 337.515625 65.988281 337.476562 C 63.207031 337.433594 60.976562 335.15625 61.019531 332.398438 " fill-opacity="1" fill-rule="nonzero"/><path fill="#e86b57" d="M 81.058594 332.71875 C 81.097656 329.957031 83.398438 327.75 86.183594 327.804688 C 88.972656 327.84375 91.199219 330.117188 91.15625 332.882812 C 91.113281 335.640625 88.808594 337.835938 86.027344 337.796875 C 83.234375 337.75 81.019531 335.480469 81.058594 332.71875 " fill-opacity="1" fill-rule="nonzero"/><g clip-path="url(#f09b4846a0)"><path fill="#f4a18f" d="M 398.175781 240.160156 L 397.820312 240.191406 L 397.171875 240.253906 L 397.015625 240.277344 L 396.964844 240.285156 L 396.613281 240.273438 C 395.984375 240.242188 395.351562 240.214844 394.722656 240.195312 L 393.386719 239.980469 C 389.574219 239.316406 385.589844 237.042969 383.484375 233.59375 C 382.445312 231.914062 381.816406 230 381.9375 228.324219 C 382.003906 227.929688 381.984375 227.507812 382.136719 227.140625 L 382.203125 226.847656 L 382.234375 226.703125 L 382.242188 226.683594 L 382.632812 225.734375 L 383.042969 224.71875 C 383.175781 224.363281 383.316406 224.011719 383.445312 223.847656 C 383.695312 223.433594 383.9375 223.007812 384.167969 222.578125 C 386.640625 218.800781 389.53125 217.964844 393.234375 219.582031 C 395.042969 220.410156 396.765625 221.941406 398.105469 223.75 L 398.585938 224.449219 L 398.804688 224.769531 L 398.898438 224.945312 L 399.910156 226.90625 C 399.996094 227.316406 400.113281 227.707031 400.257812 228.089844 C 400.390625 228.511719 400.4375 229.089844 400.550781 229.566406 C 401.011719 232.929688 399.988281 236.671875 398.175781 240.160156 M 427.617188 223.121094 C 427.371094 222.394531 427.164062 221.929688 427.011719 221.578125 C 426.867188 221.234375 426.789062 221.054688 426.789062 221.054688 L 426.777344 221.03125 C 426.335938 219.992188 425.308594 219.253906 424.105469 219.238281 C 422.472656 219.214844 421.125 220.515625 421.101562 222.15625 C 421.101562 222.15625 421.085938 222.910156 421.0625 224.320312 C 420.875 224.816406 420.898438 225.230469 420.625 225.960938 C 420.472656 226.671875 420.101562 227.414062 419.746094 228.226562 C 418.90625 229.777344 417.351562 231.582031 415.121094 233.082031 C 414.371094 233.542969 413.503906 234.179688 412.828125 234.523438 C 412.09375 234.914062 411.421875 235.339844 410.523438 235.753906 L 410.230469 235.902344 C 410.6875 233.449219 410.84375 230.859375 410.5 228.214844 C 410.308594 227.269531 410.214844 226.351562 409.917969 225.359375 C 409.601562 224.351562 409.234375 223.328125 408.847656 222.332031 L 407.8125 220.335938 L 407.625 219.960938 L 407.410156 219.570312 L 407.363281 219.496094 L 406.972656 218.921875 L 406.179688 217.785156 C 403.980469 214.820312 401.132812 212.195312 397.503906 210.476562 C 393.925781 208.769531 389.292969 208.148438 385.058594 209.589844 C 380.785156 211.003906 377.773438 214.214844 375.808594 217.324219 C 375.324219 218.183594 374.863281 219.050781 374.425781 219.921875 C 374.171875 220.394531 374.046875 220.726562 373.917969 221.058594 L 373.523438 222.082031 L 373.125 223.097656 L 373.074219 223.230469 L 372.949219 223.5625 L 372.929688 223.65625 L 372.824219 224.046875 L 372.636719 224.816406 C 372.328125 225.84375 372.269531 226.878906 372.191406 227.90625 C 372.128906 229.441406 372.285156 230.917969 372.601562 232.324219 C 372.96875 233.410156 373.773438 236.695312 375.640625 239.410156 C 377.378906 241.945312 379.710938 243.609375 380.347656 244.160156 C 383.617188 246.769531 387.425781 248.453125 391.269531 249.183594 C 390.773438 249.640625 390.285156 250.140625 389.796875 250.550781 L 389.691406 250.636719 L 389.375 250.851562 L 388.570312 251.402344 L 381.011719 254.6875 C 380.75 254.855469 380.46875 255.078125 380.230469 255.207031 L 379.613281 255.445312 L 378.550781 255.914062 C 380.230469 258.789062 381.449219 261.9375 382.214844 265.214844 L 382.410156 265.121094 C 383.152344 264.789062 389.847656 262.246094 390.59375 261.894531 L 391.71875 261.351562 C 392.027344 261.175781 392.269531 261.003906 392.542969 260.820312 L 394.15625 259.742188 L 394.96875 259.1875 L 395.375 258.90625 L 395.480469 258.84375 L 395.867188 258.5625 L 395.925781 258.515625 L 396.144531 258.324219 C 397.347656 257.332031 398.457031 256.304688 399.5 255.207031 C 401.601562 253.035156 403.511719 250.648438 405.226562 248.003906 C 406.363281 247.648438 407.445312 247.242188 408.480469 246.820312 C 410.738281 245.925781 412.804688 244.941406 414.757812 243.914062 C 415.71875 243.445312 416.742188 242.824219 417.691406 242.269531 C 418.730469 241.691406 419.371094 241.195312 420.164062 240.675781 C 423.945312 238.019531 426.429688 234.550781 427.402344 231.171875 C 428.429688 227.847656 428.027344 225.082031 427.617188 223.121094 " fill-opacity="1" fill-rule="nonzero"/></g><path fill="#efefef" d="M 393.972656 300.578125 C 393.972656 300.542969 393.972656 300.519531 393.972656 300.492188 C 393.972656 300.519531 393.972656 300.542969 393.972656 300.578125 M 393.972656 300.46875 C 393.972656 300.4375 393.972656 300.414062 393.972656 300.378906 C 393.972656 300.410156 393.972656 300.4375 393.972656 300.46875 M 393.972656 300.375 C 393.972656 300.351562 393.972656 300.316406 393.972656 300.296875 C 393.972656 300.320312 393.972656 300.351562 393.972656 300.375 M 393.972656 300.273438 C 393.972656 300.246094 393.972656 300.214844 393.972656 300.191406 C 393.972656 300.214844 393.972656 300.246094 393.972656 300.273438 M 393.972656 300.167969 C 393.972656 300.152344 393.972656 300.121094 393.972656 300.097656 C 393.972656 300.121094 393.972656 300.144531 393.972656 300.167969 M 393.972656 300.082031 C 393.972656 300.054688 393.972656 300.023438 393.972656 300 C 393.972656 300.03125 393.972656 300.054688 393.972656 300.082031 M 393.972656 299.976562 C 393.972656 299.953125 393.972656 299.929688 393.972656 299.914062 C 393.972656 299.929688 393.972656 299.953125 393.972656 299.976562 M 393.972656 299.882812 C 393.972656 299.859375 393.972656 299.835938 393.972656 299.808594 C 393.972656 299.835938 393.972656 299.859375 393.972656 299.882812 M 393.972656 299.773438 C 393.972656 299.753906 393.964844 299.738281 393.964844 299.71875 C 393.964844 299.738281 393.972656 299.753906 393.972656 299.773438 M 393.964844 299.691406 C 393.964844 299.667969 393.964844 299.636719 393.964844 299.613281 C 393.964844 299.636719 393.964844 299.667969 393.964844 299.691406 M 393.964844 299.582031 C 393.964844 299.5625 393.964844 299.546875 393.964844 299.527344 C 393.964844 299.546875 393.964844 299.5625 393.964844 299.582031 M 393.964844 299.480469 C 393.964844 299.464844 393.964844 299.445312 393.964844 299.429688 C 393.964844 299.445312 393.964844 299.464844 393.964844 299.480469 M 393.964844 299.382812 C 393.964844 299.371094 393.964844 299.351562 393.964844 299.339844 C 393.964844 299.359375 393.964844 299.371094 393.964844 299.382812 M 393.964844 299.269531 C 393.964844 299.265625 393.964844 299.246094 393.964844 299.234375 C 393.964844 299.246094 393.964844 299.257812 393.964844 299.269531 M 393.960938 299.1875 C 393.960938 299.175781 393.960938 299.171875 393.960938 299.164062 C 393.960938 299.171875 393.960938 299.175781 393.960938 299.1875 M 393.960938 299.066406 C 393.960938 299.0625 393.960938 299.0625 393.960938 299.050781 C 393.960938 299.054688 393.960938 299.0625 393.960938 299.066406 " fill-opacity="1" fill-rule="nonzero"/><path fill="#e59786" d="M 224.308594 429.601562 C 173.34375 429.601562 127.828125 412.914062 98.4375 385.90625 C 124.363281 398.753906 155.792969 406.128906 189.644531 406.128906 C 196.902344 406.128906 204.277344 405.789062 211.726562 405.089844 C 305.878906 396.296875 359.296875 350.582031 359.296875 277.097656 C 359.296875 246.949219 345.667969 219.542969 322.886719 198.546875 C 349.488281 211.570312 370.367188 230.941406 382.433594 254.070312 L 381.011719 254.6875 C 380.75 254.855469 380.46875 255.078125 380.230469 255.207031 L 379.613281 255.445312 L 378.550781 255.914062 C 380.230469 258.789062 381.449219 261.9375 382.214844 265.214844 L 382.410156 265.121094 C 382.796875 264.949219 384.808594 264.171875 386.746094 263.417969 C 391.257812 274.640625 393.765625 286.605469 393.960938 299.050781 C 393.960938 299.0625 393.960938 299.0625 393.960938 299.066406 C 393.960938 299.101562 393.960938 299.128906 393.960938 299.164062 C 393.960938 299.171875 393.960938 299.175781 393.960938 299.1875 C 393.964844 299.207031 393.964844 299.222656 393.964844 299.234375 C 393.964844 299.246094 393.964844 299.265625 393.964844 299.269531 C 393.964844 299.292969 393.964844 299.316406 393.964844 299.339844 C 393.964844 299.351562 393.964844 299.371094 393.964844 299.382812 C 393.964844 299.398438 393.964844 299.410156 393.964844 299.429688 C 393.964844 299.445312 393.964844 299.464844 393.964844 299.480469 C 393.964844 299.5 393.964844 299.515625 393.964844 299.527344 C 393.964844 299.546875 393.964844 299.5625 393.964844 299.582031 C 393.964844 299.59375 393.964844 299.601562 393.964844 299.613281 C 393.964844 299.636719 393.964844 299.667969 393.964844 299.691406 C 393.964844 299.703125 393.964844 299.714844 393.964844 299.71875 C 393.964844 299.738281 393.972656 299.753906 393.972656 299.773438 C 393.972656 299.785156 393.972656 299.796875 393.972656 299.808594 C 393.972656 299.835938 393.972656 299.859375 393.972656 299.882812 C 393.972656 299.894531 393.972656 299.902344 393.972656 299.914062 C 393.972656 299.929688 393.972656 299.953125 393.972656 299.976562 C 393.972656 299.984375 393.972656 299.988281 393.972656 300 C 393.972656 300.023438 393.972656 300.054688 393.972656 300.082031 C 393.972656 300.085938 393.972656 300.09375 393.972656 300.097656 C 393.972656 300.121094 393.972656 300.152344 393.972656 300.167969 C 393.972656 300.179688 393.972656 300.179688 393.972656 300.191406 C 393.972656 300.214844 393.972656 300.246094 393.972656 300.273438 C 393.972656 300.28125 393.972656 300.285156 393.972656 300.296875 C 393.972656 300.316406 393.972656 300.351562 393.972656 300.375 C 393.972656 300.375 393.972656 300.378906 393.972656 300.378906 C 393.972656 300.414062 393.972656 300.4375 393.972656 300.46875 C 393.972656 300.472656 393.972656 300.480469 393.972656 300.492188 C 393.972656 300.519531 393.972656 300.542969 393.972656 300.578125 C 393.972656 340.539062 378.171875 372.289062 348.617188 394.355469 C 335.386719 404.230469 319.398438 412.167969 300.832031 418.03125 C 299.855469 418.34375 298.863281 418.644531 297.863281 418.945312 C 287.890625 421.9375 277.199219 424.34375 265.816406 426.144531 C 259.550781 427.136719 253.078125 427.941406 246.398438 428.566406 C 238.945312 429.261719 231.574219 429.601562 224.308594 429.601562 " fill-opacity="1" fill-rule="nonzero"/><path fill="#e59786" d="M 382.214844 265.214844 C 381.449219 261.9375 380.230469 258.789062 378.550781 255.914062 L 379.613281 255.445312 L 380.230469 255.207031 C 380.46875 255.078125 380.75 254.855469 381.011719 254.6875 L 382.433594 254.070312 C 384.027344 257.121094 385.46875 260.242188 386.746094 263.417969 C 384.808594 264.171875 382.796875 264.949219 382.410156 265.121094 L 382.214844 265.214844 " fill-opacity="1" fill-rule="nonzero"/><path fill="#e86b57" d="M 249.035156 186.910156 C 262.875 186.910156 275.976562 188.871094 287.78125 192.386719 L 287.78125 203.03125 C 276.328125 198.804688 263.140625 196.414062 249.035156 196.414062 C 238.503906 196.414062 228.472656 197.753906 219.28125 200.199219 L 219.28125 190.085938 C 228.625 188.03125 238.65625 186.910156 249.035156 186.910156 " fill-opacity="1" fill-rule="evenodd"/><path fill="#d5624f" d="M 249.035156 189.53125 C 262.875 189.53125 275.976562 191.488281 287.78125 195 L 287.78125 205.644531 C 276.328125 201.421875 263.140625 199.03125 249.035156 199.03125 C 238.503906 199.03125 228.472656 200.371094 219.28125 202.816406 L 219.28125 192.699219 C 228.625 190.644531 238.65625 189.53125 249.035156 189.53125 " fill-opacity="1" fill-rule="evenodd"/><path fill="#f1a017" d="M 251.773438 196.335938 C 270.300781 196.335938 285.414062 181.214844 285.414062 162.671875 C 285.414062 144.136719 270.300781 129.007812 251.773438 129.007812 C 233.242188 129.007812 218.128906 144.136719 218.128906 162.671875 C 218.128906 181.214844 233.242188 196.335938 251.773438 196.335938 " fill-opacity="1" fill-rule="evenodd"/><path fill="#fcce5c" d="M 251.773438 189.804688 C 266.703125 189.804688 278.886719 177.613281 278.886719 162.671875 C 278.886719 147.730469 266.703125 135.550781 251.773438 135.550781 C 236.839844 135.550781 224.667969 147.730469 224.667969 162.671875 C 224.667969 177.613281 236.839844 189.804688 251.773438 189.804688 " fill-opacity="1" fill-rule="evenodd"/><path fill="#f1a017" d="M 249.425781 176.316406 C 248.070312 175.984375 246.65625 175.414062 245.203125 174.597656 L 245.203125 176.226562 L 239.164062 176.226562 L 239.164062 166.1875 L 245.203125 166.1875 C 245.542969 167.640625 246.242188 168.785156 247.316406 169.601562 C 248.382812 170.421875 249.578125 170.828125 250.914062 170.828125 C 251.832031 170.828125 252.496094 170.65625 252.921875 170.308594 C 253.347656 169.957031 253.558594 169.582031 253.558594 169.179688 C 253.558594 168.515625 253.199219 167.996094 252.464844 167.628906 C 251.738281 167.261719 250.839844 166.921875 249.765625 166.628906 C 248.691406 166.332031 247.519531 166.003906 246.242188 165.648438 C 244.976562 165.289062 243.8125 164.773438 242.730469 164.089844 C 241.652344 163.414062 240.75 162.515625 240.019531 161.414062 C 239.277344 160.296875 238.910156 158.84375 238.910156 157.03125 C 238.910156 155.699219 239.199219 154.527344 239.769531 153.511719 C 240.339844 152.5 241.117188 151.636719 242.078125 150.949219 C 243.046875 150.246094 244.167969 149.710938 245.4375 149.332031 C 246.710938 148.953125 248.035156 148.757812 249.425781 148.757812 L 249.425781 144.859375 L 254.140625 144.859375 L 254.140625 149.335938 C 254.898438 149.558594 255.585938 149.804688 256.1875 150.074219 C 256.789062 150.347656 257.289062 150.597656 257.691406 150.847656 L 257.691406 149.171875 L 263.796875 149.171875 L 263.796875 158.984375 L 257.691406 158.984375 C 257.597656 158.347656 257.375 157.765625 257.03125 157.234375 C 256.683594 156.703125 256.269531 156.234375 255.777344 155.855469 C 255.289062 155.476562 254.746094 155.179688 254.140625 154.953125 C 253.539062 154.730469 252.933594 154.613281 252.332031 154.613281 C 251.574219 154.613281 250.945312 154.757812 250.453125 155.050781 C 249.957031 155.335938 249.71875 155.746094 249.71875 156.289062 C 249.71875 156.960938 250.085938 157.46875 250.832031 157.804688 C 251.578125 158.160156 252.507812 158.484375 253.589844 158.785156 C 254.6875 159.089844 255.882812 159.417969 257.183594 159.785156 C 258.480469 160.144531 259.675781 160.671875 260.765625 161.347656 C 261.855469 162.03125 262.777344 162.941406 263.523438 164.078125 C 264.265625 165.21875 264.636719 166.710938 264.636719 168.554688 C 264.636719 169.910156 264.351562 171.101562 263.792969 172.097656 C 263.226562 173.097656 262.457031 173.925781 261.488281 174.597656 C 260.519531 175.261719 259.40625 175.757812 258.136719 176.089844 C 256.863281 176.421875 255.535156 176.621094 254.140625 176.679688 L 254.140625 180.492188 L 249.425781 180.492188 L 249.425781 176.316406 " fill-opacity="1" fill-rule="nonzero"/><path fill="#bdbcbd" d="M 285.414062 162.613281 C 285.414062 162.609375 285.414062 162.601562 285.414062 162.597656 C 285.414062 162.601562 285.414062 162.609375 285.414062 162.613281 M 285.414062 162.5625 C 285.414062 162.550781 285.414062 162.542969 285.414062 162.539062 C 285.414062 162.542969 285.414062 162.550781 285.414062 162.5625 M 285.414062 162.503906 C 285.414062 162.496094 285.414062 162.484375 285.414062 162.480469 C 285.414062 162.484375 285.414062 162.496094 285.414062 162.503906 M 285.414062 162.445312 C 285.414062 162.441406 285.414062 162.433594 285.414062 162.421875 C 285.414062 162.433594 285.414062 162.441406 285.414062 162.445312 M 285.414062 162.394531 C 285.414062 162.382812 285.414062 162.375 285.414062 162.371094 C 285.414062 162.375 285.414062 162.382812 285.414062 162.394531 M 285.414062 162.335938 C 285.414062 162.328125 285.414062 162.316406 285.414062 162.3125 C 285.414062 162.316406 285.414062 162.328125 285.414062 162.335938 M 285.414062 162.277344 C 285.414062 162.269531 285.414062 162.265625 285.414062 162.257812 C 285.414062 162.265625 285.414062 162.269531 285.414062 162.277344 M 285.414062 162.222656 C 285.414062 162.21875 285.414062 162.207031 285.414062 162.199219 C 285.414062 162.207031 285.414062 162.210938 285.414062 162.222656 M 285.414062 162.164062 C 285.414062 162.160156 285.414062 162.152344 285.414062 162.140625 C 285.414062 162.152344 285.414062 162.160156 285.414062 162.164062 M 285.414062 162.105469 C 285.414062 162.101562 285.414062 162.09375 285.40625 162.089844 C 285.414062 162.09375 285.414062 162.101562 285.414062 162.105469 M 285.40625 162.046875 C 285.40625 162.042969 285.40625 162.035156 285.40625 162.03125 C 285.40625 162.035156 285.40625 162.042969 285.40625 162.046875 M 285.40625 161.988281 C 285.40625 161.984375 285.40625 161.980469 285.40625 161.980469 C 285.40625 161.984375 285.40625 161.984375 285.40625 161.988281 M 285.40625 161.933594 C 285.40625 161.925781 285.40625 161.925781 285.40625 161.921875 C 285.40625 161.925781 285.40625 161.925781 285.40625 161.933594 M 285.40625 161.867188 C 285.40625 161.867188 285.40625 161.867188 285.40625 161.863281 C 285.40625 161.867188 285.40625 161.867188 285.40625 161.867188 M 285.394531 161.523438 C 285.394531 161.523438 285.394531 161.523438 285.394531 161.515625 C 285.394531 161.523438 285.394531 161.523438 285.394531 161.523438 M 285.382812 161.296875 L 285.382812 161.289062 L 285.382812 161.296875 " fill-opacity="1" fill-rule="nonzero"/><path fill="#9f4839" d="M 251.71875 196.335938 C 251.714844 196.335938 251.707031 196.335938 251.695312 196.335938 C 251.707031 196.335938 251.714844 196.335938 251.71875 196.335938 M 251.667969 196.335938 C 251.660156 196.335938 251.65625 196.335938 251.648438 196.335938 C 251.65625 196.335938 251.660156 196.335938 251.667969 196.335938 M 251.609375 196.335938 C 251.601562 196.335938 251.597656 196.335938 251.589844 196.335938 C 251.597656 196.335938 251.601562 196.335938 251.609375 196.335938 M 251.554688 196.335938 C 251.550781 196.335938 251.542969 196.335938 251.539062 196.335938 C 251.542969 196.335938 251.550781 196.335938 251.554688 196.335938 M 251.503906 196.335938 C 251.496094 196.335938 251.492188 196.335938 251.484375 196.335938 C 251.492188 196.335938 251.496094 196.335938 251.503906 196.335938 M 251.445312 196.335938 C 251.441406 196.335938 251.441406 196.335938 251.433594 196.335938 C 251.441406 196.335938 251.441406 196.335938 251.445312 196.335938 M 251.394531 196.335938 C 251.386719 196.335938 251.382812 196.335938 251.375 196.335938 C 251.382812 196.335938 251.386719 196.335938 251.394531 196.335938 M 251.335938 196.332031 C 251.335938 196.332031 251.328125 196.332031 251.324219 196.332031 C 251.328125 196.332031 251.335938 196.332031 251.335938 196.332031 M 251.28125 196.332031 C 251.277344 196.332031 251.277344 196.332031 251.269531 196.332031 C 251.269531 196.332031 251.277344 196.332031 251.28125 196.332031 M 251.230469 196.332031 C 251.222656 196.332031 251.21875 196.332031 251.210938 196.332031 C 251.21875 196.332031 251.222656 196.332031 251.230469 196.332031 M 251.171875 196.332031 C 251.171875 196.332031 251.164062 196.332031 251.160156 196.332031 C 251.164062 196.332031 251.171875 196.332031 251.171875 196.332031 M 251.117188 196.332031 C 251.113281 196.332031 251.113281 196.332031 251.105469 196.332031 C 251.113281 196.332031 251.113281 196.332031 251.117188 196.332031 M 251.066406 196.332031 C 251.058594 196.332031 251.054688 196.332031 251.054688 196.332031 C 251.054688 196.332031 251.058594 196.332031 251.066406 196.332031 M 251.007812 196.332031 C 251.007812 196.332031 251.007812 196.324219 251.003906 196.324219 C 251.007812 196.332031 251.007812 196.332031 251.007812 196.332031 M 250.957031 196.324219 C 250.957031 196.324219 250.957031 196.324219 250.949219 196.324219 L 250.957031 196.324219 " fill-opacity="1" fill-rule="nonzero"/><path fill="#b27510" d="M 251.773438 196.335938 C 251.753906 196.335938 251.738281 196.335938 251.71875 196.335938 C 251.714844 196.335938 251.707031 196.335938 251.695312 196.335938 C 251.683594 196.335938 251.671875 196.335938 251.667969 196.335938 C 251.660156 196.335938 251.65625 196.335938 251.648438 196.335938 C 251.636719 196.335938 251.625 196.335938 251.609375 196.335938 C 251.601562 196.335938 251.597656 196.335938 251.589844 196.335938 C 251.578125 196.335938 251.566406 196.335938 251.554688 196.335938 C 251.550781 196.335938 251.542969 196.335938 251.539062 196.335938 C 251.527344 196.335938 251.515625 196.335938 251.503906 196.335938 C 251.496094 196.335938 251.492188 196.335938 251.484375 196.335938 C 251.472656 196.335938 251.457031 196.335938 251.445312 196.335938 C 251.441406 196.335938 251.441406 196.335938 251.433594 196.335938 C 251.417969 196.335938 251.40625 196.335938 251.394531 196.335938 C 251.386719 196.335938 251.382812 196.335938 251.375 196.335938 C 251.363281 196.335938 251.351562 196.335938 251.335938 196.332031 C 251.335938 196.332031 251.328125 196.332031 251.324219 196.332031 C 251.304688 196.332031 251.292969 196.332031 251.28125 196.332031 C 251.277344 196.332031 251.269531 196.332031 251.269531 196.332031 C 251.253906 196.332031 251.242188 196.332031 251.230469 196.332031 C 251.222656 196.332031 251.21875 196.332031 251.210938 196.332031 C 251.199219 196.332031 251.1875 196.332031 251.171875 196.332031 C 251.171875 196.332031 251.164062 196.332031 251.160156 196.332031 C 251.148438 196.332031 251.136719 196.332031 251.117188 196.332031 C 251.113281 196.332031 251.113281 196.332031 251.105469 196.332031 C 251.09375 196.332031 251.078125 196.332031 251.066406 196.332031 C 251.058594 196.332031 251.054688 196.332031 251.054688 196.332031 C 251.035156 196.332031 251.027344 196.332031 251.007812 196.332031 C 251.007812 196.332031 251.007812 196.332031 251.003906 196.324219 C 250.984375 196.324219 250.972656 196.324219 250.957031 196.324219 L 250.949219 196.324219 C 250.933594 196.324219 250.914062 196.324219 250.898438 196.324219 C 241.878906 196.089844 233.738281 192.273438 227.820312 186.261719 C 230.625 185.878906 233.421875 185.421875 236.183594 184.84375 C 240.597656 187.96875 245.980469 189.804688 251.773438 189.804688 C 266.703125 189.804688 278.886719 177.613281 278.886719 162.671875 C 278.886719 156.492188 276.804688 150.789062 273.304688 146.21875 C 273.824219 143.414062 274.179688 140.589844 274.359375 137.765625 C 280.824219 143.640625 285.011719 151.992188 285.382812 161.289062 L 285.382812 161.296875 C 285.390625 161.332031 285.390625 161.367188 285.390625 161.40625 C 285.390625 161.425781 285.390625 161.449219 285.390625 161.464844 C 285.394531 161.484375 285.394531 161.5 285.394531 161.515625 C 285.394531 161.523438 285.394531 161.523438 285.394531 161.523438 C 285.394531 161.640625 285.402344 161.75 285.40625 161.863281 C 285.40625 161.867188 285.40625 161.867188 285.40625 161.867188 C 285.40625 161.886719 285.40625 161.902344 285.40625 161.921875 C 285.40625 161.925781 285.40625 161.925781 285.40625 161.933594 C 285.40625 161.949219 285.40625 161.960938 285.40625 161.980469 C 285.40625 161.980469 285.40625 161.984375 285.40625 161.988281 C 285.40625 162.007812 285.40625 162.019531 285.40625 162.03125 C 285.40625 162.035156 285.40625 162.042969 285.40625 162.046875 C 285.40625 162.066406 285.40625 162.078125 285.40625 162.089844 C 285.414062 162.09375 285.414062 162.101562 285.414062 162.105469 C 285.414062 162.117188 285.414062 162.128906 285.414062 162.140625 C 285.414062 162.152344 285.414062 162.160156 285.414062 162.164062 C 285.414062 162.175781 285.414062 162.1875 285.414062 162.199219 C 285.414062 162.207031 285.414062 162.21875 285.414062 162.222656 C 285.414062 162.234375 285.414062 162.246094 285.414062 162.257812 C 285.414062 162.265625 285.414062 162.269531 285.414062 162.277344 C 285.414062 162.289062 285.414062 162.300781 285.414062 162.3125 C 285.414062 162.316406 285.414062 162.328125 285.414062 162.335938 C 285.414062 162.347656 285.414062 162.359375 285.414062 162.371094 C 285.414062 162.375 285.414062 162.382812 285.414062 162.394531 C 285.414062 162.398438 285.414062 162.410156 285.414062 162.421875 C 285.414062 162.433594 285.414062 162.441406 285.414062 162.445312 C 285.414062 162.457031 285.414062 162.46875 285.414062 162.480469 C 285.414062 162.484375 285.414062 162.496094 285.414062 162.503906 C 285.414062 162.515625 285.414062 162.527344 285.414062 162.539062 C 285.414062 162.542969 285.414062 162.550781 285.414062 162.5625 C 285.414062 162.574219 285.414062 162.585938 285.414062 162.597656 C 285.414062 162.601562 285.414062 162.609375 285.414062 162.613281 C 285.414062 162.632812 285.414062 162.65625 285.414062 162.671875 C 285.414062 181.214844 270.300781 196.335938 251.773438 196.335938 " fill-opacity="1" fill-rule="nonzero"/><path fill="#ba9744" d="M 251.773438 189.804688 C 245.980469 189.804688 240.597656 187.96875 236.183594 184.84375 C 240.941406 183.851562 245.578125 182.492188 249.898438 180.492188 L 254.140625 180.492188 L 254.140625 178.261719 C 255.132812 177.660156 256.097656 177.023438 257.050781 176.339844 C 257.417969 176.265625 257.777344 176.183594 258.136719 176.089844 C 259.40625 175.757812 260.519531 175.261719 261.488281 174.597656 C 262.457031 173.925781 263.226562 173.097656 263.792969 172.097656 C 264.277344 171.230469 264.550781 170.226562 264.621094 169.09375 C 269.601562 162.679688 271.730469 154.433594 273.234375 146.582031 C 273.257812 146.460938 273.28125 146.34375 273.304688 146.21875 C 276.804688 150.789062 278.886719 156.492188 278.886719 162.671875 C 278.886719 177.613281 266.703125 189.804688 251.773438 189.804688 " fill-opacity="1" fill-rule="nonzero"/><path fill="#b27510" d="M 254.140625 180.492188 L 249.898438 180.492188 C 251.351562 179.824219 252.761719 179.078125 254.140625 178.261719 L 254.140625 180.492188 M 257.050781 176.339844 C 259.523438 174.550781 261.832031 172.441406 263.925781 169.949219 C 264.164062 169.671875 264.394531 169.382812 264.621094 169.09375 C 264.550781 170.226562 264.277344 171.230469 263.792969 172.097656 C 263.226562 173.097656 262.457031 173.925781 261.488281 174.597656 C 260.519531 175.261719 259.40625 175.757812 258.136719 176.089844 C 257.777344 176.183594 257.417969 176.265625 257.050781 176.339844 " fill-opacity="1" fill-rule="nonzero"/><path fill="#f1a017" d="M 210.617188 118.871094 C 229.140625 118.871094 244.261719 103.75 244.261719 85.207031 C 244.261719 66.667969 229.140625 51.542969 210.617188 51.542969 C 192.089844 51.542969 176.976562 66.667969 176.976562 85.207031 C 176.976562 103.75 192.089844 118.871094 210.617188 118.871094 " fill-opacity="1" fill-rule="evenodd"/><path fill="#fcce5c" d="M 210.617188 112.335938 C 225.550781 112.335938 237.722656 100.144531 237.722656 85.207031 C 237.722656 70.265625 225.550781 58.082031 210.617188 58.082031 C 195.6875 58.082031 183.511719 70.265625 183.511719 85.207031 C 183.511719 100.144531 195.6875 112.335938 210.617188 112.335938 " fill-opacity="1" fill-rule="evenodd"/><path fill="#f1a017" d="M 208.273438 98.847656 C 206.914062 98.527344 205.503906 97.949219 204.046875 97.132812 L 204.046875 98.753906 L 198.007812 98.753906 L 198.007812 88.714844 L 204.046875 88.714844 C 204.382812 90.179688 205.089844 91.3125 206.164062 92.128906 C 207.230469 92.953125 208.425781 93.363281 209.753906 93.363281 C 210.671875 93.363281 211.34375 93.1875 211.769531 92.84375 C 212.195312 92.492188 212.402344 92.117188 212.402344 91.714844 C 212.402344 91.050781 212.035156 90.53125 211.3125 90.15625 C 210.582031 89.789062 209.691406 89.453125 208.605469 89.160156 C 207.539062 88.867188 206.359375 88.539062 205.089844 88.183594 C 203.824219 87.824219 202.644531 87.308594 201.574219 86.625 C 200.5 85.945312 199.59375 85.050781 198.855469 83.949219 C 198.125 82.839844 197.757812 81.378906 197.757812 79.566406 C 197.757812 78.234375 198.042969 77.054688 198.609375 76.050781 C 199.1875 75.03125 199.957031 74.171875 200.925781 73.476562 C 201.894531 72.78125 203.011719 72.246094 204.277344 71.867188 C 205.550781 71.488281 206.878906 71.292969 208.273438 71.292969 L 208.273438 67.390625 L 212.988281 67.390625 L 212.988281 71.878906 C 213.746094 72.09375 214.425781 72.332031 215.027344 72.609375 C 215.632812 72.882812 216.128906 73.132812 216.542969 73.378906 L 216.542969 71.714844 L 222.644531 71.714844 L 222.644531 81.515625 L 216.542969 81.515625 C 216.445312 80.882812 216.230469 80.292969 215.878906 79.761719 C 215.523438 79.230469 215.109375 78.769531 214.621094 78.386719 C 214.136719 78.011719 213.59375 77.707031 212.988281 77.488281 C 212.386719 77.253906 211.78125 77.148438 211.171875 77.148438 C 210.421875 77.148438 209.789062 77.292969 209.292969 77.574219 C 208.800781 77.859375 208.554688 78.28125 208.554688 78.824219 C 208.554688 79.488281 208.921875 79.992188 209.675781 80.339844 C 210.433594 80.683594 211.347656 81.019531 212.4375 81.320312 C 213.527344 81.617188 214.730469 81.953125 216.023438 82.320312 C 217.324219 82.675781 218.523438 83.207031 219.613281 83.890625 C 220.703125 84.566406 221.625 85.476562 222.363281 86.613281 C 223.105469 87.753906 223.472656 89.242188 223.472656 91.085938 C 223.472656 92.449219 223.199219 93.628906 222.632812 94.628906 C 222.066406 95.625 221.292969 96.453125 220.328125 97.132812 C 219.363281 97.792969 218.246094 98.289062 216.980469 98.625 C 215.703125 98.953125 214.375 99.15625 212.988281 99.214844 L 212.988281 103.027344 L 208.273438 103.027344 L 208.273438 98.847656 " fill-opacity="1" fill-rule="nonzero"/><path fill="#bdbcbd" d="M 210.566406 118.871094 C 210.554688 118.871094 210.542969 118.871094 210.535156 118.871094 C 210.542969 118.871094 210.554688 118.871094 210.566406 118.871094 M 210.507812 118.871094 C 210.503906 118.871094 210.492188 118.871094 210.484375 118.871094 C 210.492188 118.871094 210.503906 118.871094 210.507812 118.871094 M 210.457031 118.871094 C 210.445312 118.871094 210.4375 118.871094 210.425781 118.871094 C 210.4375 118.871094 210.445312 118.871094 210.457031 118.871094 M 210.398438 118.871094 C 210.390625 118.871094 210.386719 118.871094 210.375 118.871094 C 210.386719 118.871094 210.390625 118.871094 210.398438 118.871094 M 210.34375 118.871094 C 210.339844 118.871094 210.328125 118.871094 210.320312 118.871094 C 210.328125 118.871094 210.339844 118.871094 210.34375 118.871094 M 210.292969 118.871094 C 210.28125 118.871094 210.273438 118.871094 210.269531 118.871094 C 210.273438 118.871094 210.28125 118.871094 210.292969 118.871094 M 210.234375 118.867188 C 210.226562 118.867188 210.222656 118.867188 210.210938 118.867188 C 210.214844 118.867188 210.226562 118.867188 210.234375 118.867188 M 210.179688 118.867188 C 210.175781 118.867188 210.164062 118.867188 210.15625 118.867188 C 210.164062 118.867188 210.175781 118.867188 210.179688 118.867188 M 210.128906 118.867188 C 210.117188 118.867188 210.113281 118.867188 210.105469 118.867188 C 210.113281 118.867188 210.117188 118.867188 210.128906 118.867188 M 210.070312 118.867188 C 210.066406 118.867188 210.058594 118.867188 210.054688 118.867188 C 210.058594 118.867188 210.066406 118.867188 210.070312 118.867188 M 210.019531 118.867188 C 210.011719 118.867188 210.007812 118.867188 209.996094 118.867188 C 210.007812 118.867188 210.011719 118.867188 210.019531 118.867188 M 209.964844 118.867188 C 209.960938 118.867188 209.949219 118.867188 209.941406 118.867188 C 209.953125 118.867188 209.953125 118.867188 209.964844 118.867188 M 209.90625 118.867188 C 209.902344 118.867188 209.894531 118.867188 209.890625 118.867188 C 209.894531 118.867188 209.902344 118.867188 209.90625 118.867188 M 209.855469 118.859375 C 209.847656 118.859375 209.84375 118.859375 209.84375 118.859375 C 209.84375 118.859375 209.847656 118.859375 209.855469 118.859375 M 209.796875 118.859375 C 209.796875 118.859375 209.789062 118.859375 209.785156 118.859375 C 209.789062 118.859375 209.796875 118.859375 209.796875 118.859375 M 209.742188 118.859375 C 209.738281 118.859375 209.730469 118.859375 209.730469 118.859375 C 209.730469 118.859375 209.738281 118.859375 209.742188 118.859375 M 209.691406 118.859375 C 209.6875 118.859375 209.679688 118.859375 209.675781 118.859375 C 209.679688 118.859375 209.6875 118.859375 209.691406 118.859375 M 209.640625 118.855469 C 209.632812 118.855469 209.628906 118.855469 209.621094 118.855469 C 209.628906 118.855469 209.632812 118.855469 209.640625 118.855469 M 209.582031 118.855469 C 209.582031 118.855469 209.574219 118.855469 209.570312 118.855469 C 209.574219 118.855469 209.582031 118.855469 209.582031 118.855469 M 209.527344 118.855469 C 209.523438 118.855469 209.523438 118.855469 209.515625 118.855469 C 209.523438 118.855469 209.523438 118.855469 209.527344 118.855469 M 209.46875 118.847656 C 209.46875 118.847656 209.464844 118.847656 209.464844 118.847656 C 209.464844 118.847656 209.46875 118.847656 209.46875 118.847656 M 209.417969 118.847656 C 209.417969 118.847656 209.410156 118.847656 209.410156 118.847656 C 209.410156 118.847656 209.417969 118.847656 209.417969 118.847656 M 209.363281 118.847656 C 209.359375 118.847656 209.359375 118.847656 209.359375 118.847656 C 209.359375 118.847656 209.359375 118.847656 209.363281 118.847656 M 209.304688 118.84375 C 209.304688 118.84375 209.304688 118.84375 209.300781 118.84375 C 209.300781 118.84375 209.304688 118.84375 209.304688 118.84375 M 209.253906 118.84375 C 209.253906 118.84375 209.253906 118.84375 209.25 118.84375 C 209.253906 118.84375 209.25 118.84375 209.253906 118.84375 M 209.203125 118.84375 L 209.195312 118.84375 C 209.203125 118.84375 209.195312 118.84375 209.203125 118.84375 M 244.261719 85.15625 C 244.261719 85.148438 244.261719 85.136719 244.261719 85.132812 C 244.261719 85.136719 244.261719 85.148438 244.261719 85.15625 M 244.261719 85.097656 C 244.261719 85.089844 244.261719 85.078125 244.261719 85.074219 C 244.261719 85.078125 244.261719 85.089844 244.261719 85.097656 M 244.261719 85.039062 C 244.261719 85.035156 244.261719 85.027344 244.261719 85.015625 C 244.261719 85.027344 244.261719 85.035156 244.261719 85.039062 M 244.261719 84.988281 C 244.261719 84.976562 244.261719 84.96875 244.261719 84.957031 C 244.261719 84.96875 244.261719 84.976562 244.261719 84.988281 M 244.261719 84.929688 C 244.261719 84.921875 244.261719 84.910156 244.261719 84.90625 C 244.261719 84.910156 244.261719 84.921875 244.261719 84.929688 M 244.261719 84.875 C 244.261719 84.863281 244.261719 84.859375 244.261719 84.847656 C 244.261719 84.859375 244.261719 84.863281 244.261719 84.875 M 244.261719 84.816406 C 244.261719 84.8125 244.261719 84.800781 244.261719 84.792969 C 244.261719 84.800781 244.261719 84.8125 244.261719 84.816406 M 244.261719 84.757812 C 244.261719 84.753906 244.261719 84.746094 244.261719 84.734375 C 244.261719 84.746094 244.261719 84.753906 244.261719 84.757812 M 244.253906 84.699219 C 244.253906 84.695312 244.253906 84.6875 244.253906 84.683594 C 244.253906 84.6875 244.253906 84.695312 244.253906 84.699219 M 244.253906 84.640625 C 244.253906 84.640625 244.253906 84.628906 244.253906 84.625 C 244.253906 84.628906 244.253906 84.636719 244.253906 84.640625 M 244.253906 84.582031 C 244.253906 84.582031 244.253906 84.578125 244.253906 84.570312 C 244.253906 84.578125 244.253906 84.582031 244.253906 84.582031 M 244.253906 84.527344 C 244.253906 84.527344 244.253906 84.519531 244.253906 84.515625 C 244.253906 84.519531 244.253906 84.527344 244.253906 84.527344 M 236.882812 64.210938 C 235.757812 62.808594 234.53125 61.5 233.203125 60.292969 C 234.53125 61.496094 235.757812 62.808594 236.882812 64.210938 " fill-opacity="1" fill-rule="nonzero"/><path fill="#b27510" d="M 210.617188 118.871094 C 210.601562 118.871094 210.582031 118.871094 210.566406 118.871094 C 210.554688 118.871094 210.542969 118.871094 210.535156 118.871094 C 210.527344 118.871094 210.519531 118.871094 210.507812 118.871094 C 210.503906 118.871094 210.492188 118.871094 210.484375 118.871094 C 210.472656 118.871094 210.460938 118.871094 210.457031 118.871094 C 210.445312 118.871094 210.4375 118.871094 210.425781 118.871094 C 210.421875 118.871094 210.410156 118.871094 210.398438 118.871094 C 210.390625 118.871094 210.386719 118.871094 210.375 118.871094 C 210.363281 118.871094 210.355469 118.871094 210.34375 118.871094 C 210.339844 118.871094 210.328125 118.871094 210.320312 118.871094 C 210.308594 118.871094 210.296875 118.871094 210.292969 118.871094 C 210.28125 118.871094 210.273438 118.871094 210.269531 118.871094 C 210.257812 118.867188 210.246094 118.867188 210.234375 118.867188 C 210.226562 118.867188 210.214844 118.867188 210.210938 118.867188 C 210.203125 118.867188 210.191406 118.867188 210.179688 118.867188 C 210.175781 118.867188 210.164062 118.867188 210.15625 118.867188 C 210.144531 118.867188 210.140625 118.867188 210.128906 118.867188 C 210.117188 118.867188 210.113281 118.867188 210.105469 118.867188 C 210.09375 118.867188 210.082031 118.867188 210.070312 118.867188 C 210.066406 118.867188 210.058594 118.867188 210.054688 118.867188 C 210.042969 118.867188 210.03125 118.867188 210.019531 118.867188 C 210.011719 118.867188 210.007812 118.867188 209.996094 118.867188 C 209.984375 118.867188 209.976562 118.867188 209.964844 118.867188 C 209.953125 118.867188 209.953125 118.867188 209.941406 118.867188 C 209.929688 118.867188 209.917969 118.867188 209.90625 118.867188 C 209.902344 118.867188 209.894531 118.867188 209.890625 118.867188 C 209.878906 118.859375 209.867188 118.859375 209.855469 118.859375 C 209.847656 118.859375 209.84375 118.859375 209.84375 118.859375 C 209.824219 118.859375 209.8125 118.859375 209.796875 118.859375 C 209.796875 118.859375 209.789062 118.859375 209.785156 118.859375 C 209.773438 118.859375 209.761719 118.859375 209.742188 118.859375 C 209.738281 118.859375 209.730469 118.859375 209.730469 118.859375 C 209.714844 118.859375 209.703125 118.859375 209.691406 118.859375 C 209.6875 118.859375 209.679688 118.859375 209.675781 118.859375 C 209.664062 118.859375 209.652344 118.859375 209.640625 118.855469 C 209.632812 118.855469 209.628906 118.855469 209.621094 118.855469 C 209.609375 118.855469 209.59375 118.855469 209.582031 118.855469 C 209.582031 118.855469 209.574219 118.855469 209.570312 118.855469 C 209.558594 118.855469 209.539062 118.855469 209.527344 118.855469 C 209.523438 118.855469 209.523438 118.855469 209.515625 118.855469 C 209.5 118.847656 209.488281 118.847656 209.46875 118.847656 C 209.46875 118.847656 209.464844 118.847656 209.464844 118.847656 C 209.445312 118.847656 209.433594 118.847656 209.417969 118.847656 C 209.417969 118.847656 209.410156 118.847656 209.410156 118.847656 C 209.394531 118.847656 209.375 118.847656 209.363281 118.847656 C 209.359375 118.847656 209.359375 118.847656 209.359375 118.847656 C 209.339844 118.847656 209.324219 118.84375 209.304688 118.84375 C 209.304688 118.84375 209.300781 118.84375 209.300781 118.84375 C 209.28125 118.84375 209.269531 118.84375 209.253906 118.84375 C 209.25 118.84375 209.253906 118.84375 209.25 118.84375 C 209.230469 118.84375 209.214844 118.84375 209.203125 118.84375 C 209.195312 118.84375 209.203125 118.84375 209.195312 118.84375 C 200.402344 118.46875 192.460938 114.691406 186.660156 108.796875 C 189.46875 108.414062 192.277344 107.957031 195.035156 107.378906 C 199.445312 110.496094 204.820312 112.335938 210.617188 112.335938 C 225.550781 112.335938 237.722656 100.144531 237.722656 85.207031 C 237.722656 79.035156 235.644531 73.324219 232.144531 68.757812 C 232.671875 65.949219 233.019531 63.125 233.203125 60.292969 C 234.53125 61.5 235.757812 62.808594 236.882812 64.210938 C 241.34375 69.789062 244.085938 76.816406 244.253906 84.460938 C 244.253906 84.480469 244.253906 84.496094 244.253906 84.515625 C 244.253906 84.519531 244.253906 84.527344 244.253906 84.527344 C 244.253906 84.542969 244.253906 84.554688 244.253906 84.570312 C 244.253906 84.578125 244.253906 84.582031 244.253906 84.582031 C 244.253906 84.601562 244.253906 84.613281 244.253906 84.625 C 244.253906 84.628906 244.253906 84.640625 244.253906 84.640625 C 244.253906 84.660156 244.253906 84.671875 244.253906 84.683594 C 244.253906 84.6875 244.253906 84.695312 244.253906 84.699219 C 244.253906 84.710938 244.253906 84.722656 244.261719 84.734375 C 244.261719 84.746094 244.261719 84.753906 244.261719 84.757812 C 244.261719 84.769531 244.261719 84.78125 244.261719 84.792969 C 244.261719 84.800781 244.261719 84.8125 244.261719 84.816406 C 244.261719 84.828125 244.261719 84.835938 244.261719 84.847656 C 244.261719 84.859375 244.261719 84.863281 244.261719 84.875 C 244.261719 84.882812 244.261719 84.894531 244.261719 84.90625 C 244.261719 84.910156 244.261719 84.921875 244.261719 84.929688 C 244.261719 84.941406 244.261719 84.953125 244.261719 84.957031 C 244.261719 84.96875 244.261719 84.976562 244.261719 84.988281 C 244.261719 85 244.261719 85.011719 244.261719 85.015625 C 244.261719 85.027344 244.261719 85.035156 244.261719 85.039062 C 244.261719 85.050781 244.261719 85.0625 244.261719 85.074219 C 244.261719 85.078125 244.261719 85.089844 244.261719 85.097656 C 244.261719 85.109375 244.261719 85.121094 244.261719 85.132812 C 244.261719 85.136719 244.261719 85.148438 244.261719 85.15625 C 244.261719 85.171875 244.261719 85.191406 244.261719 85.207031 C 244.261719 103.75 229.140625 118.871094 210.617188 118.871094 " fill-opacity="1" fill-rule="nonzero"/><path fill="#ba9744" d="M 210.617188 112.335938 C 204.820312 112.335938 199.445312 110.496094 195.035156 107.378906 C 199.789062 106.382812 204.417969 105.023438 208.742188 103.027344 L 212.988281 103.027344 L 212.988281 100.785156 C 213.976562 100.195312 214.945312 99.554688 215.890625 98.871094 C 216.257812 98.800781 216.621094 98.71875 216.980469 98.625 C 218.246094 98.289062 219.363281 97.792969 220.328125 97.132812 C 221.292969 96.453125 222.066406 95.625 222.632812 94.628906 C 223.125 93.765625 223.398438 92.761719 223.460938 91.621094 C 228.449219 85.207031 230.570312 76.960938 232.082031 69.117188 C 232.105469 69 232.121094 68.878906 232.144531 68.757812 C 235.644531 73.324219 237.722656 79.035156 237.722656 85.207031 C 237.722656 100.144531 225.550781 112.335938 210.617188 112.335938 " fill-opacity="1" fill-rule="nonzero"/><path fill="#b27510" d="M 212.988281 103.027344 L 208.742188 103.027344 C 210.191406 102.355469 211.609375 101.613281 212.988281 100.785156 L 212.988281 103.027344 M 215.890625 98.871094 C 218.363281 97.085938 220.667969 94.976562 222.765625 92.484375 C 223.007812 92.199219 223.234375 91.914062 223.460938 91.621094 C 223.398438 92.761719 223.125 93.765625 222.632812 94.628906 C 222.066406 95.625 221.292969 96.453125 220.328125 97.132812 C 219.363281 97.792969 218.246094 98.289062 216.980469 98.625 C 216.621094 98.71875 216.257812 98.800781 215.890625 98.871094 " fill-opacity="1" fill-rule="nonzero"/><g clip-path="url(#a880c0df78)"><path fill="#f1a017" d="M 288.03125 71.144531 C 306.5625 71.144531 321.679688 56.019531 321.679688 37.484375 C 321.679688 18.949219 306.5625 3.828125 288.03125 3.828125 C 269.503906 3.828125 254.390625 18.949219 254.390625 37.484375 C 254.390625 56.019531 269.503906 71.144531 288.03125 71.144531 " fill-opacity="1" fill-rule="evenodd"/></g><path fill="#fcce5c" d="M 288.03125 64.613281 C 302.96875 64.613281 315.140625 52.425781 315.140625 37.484375 C 315.140625 22.550781 302.96875 10.363281 288.03125 10.363281 C 273.105469 10.363281 260.921875 22.550781 260.921875 37.484375 C 260.921875 52.425781 273.105469 64.613281 288.03125 64.613281 " fill-opacity="1" fill-rule="evenodd"/><path fill="#f1a017" d="M 285.6875 51.128906 C 284.328125 50.796875 282.917969 50.21875 281.464844 49.410156 L 281.464844 51.03125 L 275.429688 51.03125 L 275.429688 41 L 281.464844 41 C 281.804688 42.453125 282.503906 43.597656 283.574219 44.414062 C 284.644531 45.234375 285.84375 45.636719 287.167969 45.636719 C 288.085938 45.636719 288.753906 45.476562 289.1875 45.117188 C 289.605469 44.769531 289.824219 44.394531 289.824219 43.992188 C 289.824219 43.320312 289.453125 42.808594 288.730469 42.433594 C 288.003906 42.0625 287.105469 41.734375 286.019531 41.4375 C 284.953125 41.140625 283.78125 40.8125 282.503906 40.460938 C 281.242188 40.105469 280.070312 39.585938 278.996094 38.902344 C 277.917969 38.21875 277.007812 37.328125 276.273438 36.21875 C 275.539062 35.117188 275.171875 33.65625 275.171875 31.839844 C 275.171875 30.511719 275.457031 29.335938 276.035156 28.316406 C 276.601562 27.3125 277.375 26.449219 278.34375 25.753906 C 279.3125 25.058594 280.433594 24.515625 281.691406 24.144531 C 282.964844 23.757812 284.292969 23.570312 285.6875 23.570312 L 285.6875 19.660156 L 290.398438 19.660156 L 290.398438 24.15625 C 291.15625 24.371094 291.839844 24.617188 292.445312 24.882812 C 293.046875 25.152344 293.554688 25.414062 293.957031 25.65625 L 293.957031 23.992188 L 300.058594 23.992188 L 300.058594 33.789062 L 293.957031 33.789062 C 293.859375 33.160156 293.636719 32.570312 293.292969 32.039062 C 292.941406 31.503906 292.523438 31.046875 292.03125 30.675781 C 291.546875 30.289062 291.007812 29.984375 290.398438 29.769531 C 289.804688 29.542969 289.191406 29.425781 288.589844 29.425781 C 287.832031 29.425781 287.210938 29.570312 286.714844 29.851562 C 286.210938 30.144531 285.972656 30.550781 285.972656 31.101562 C 285.972656 31.765625 286.339844 32.273438 287.097656 32.625 C 287.84375 32.96875 288.765625 33.292969 289.851562 33.597656 C 290.949219 33.902344 292.144531 34.234375 293.445312 34.597656 C 294.746094 34.964844 295.941406 35.476562 297.023438 36.167969 C 298.121094 36.84375 299.03125 37.753906 299.777344 38.886719 C 300.523438 40.035156 300.898438 41.519531 300.898438 43.367188 C 300.898438 44.726562 300.613281 45.90625 300.046875 46.90625 C 299.480469 47.902344 298.710938 48.742188 297.742188 49.410156 C 296.78125 50.066406 295.667969 50.570312 294.394531 50.898438 C 293.125 51.234375 291.792969 51.441406 290.398438 51.492188 L 290.398438 55.304688 L 285.6875 55.304688 L 285.6875 51.128906 " fill-opacity="1" fill-rule="nonzero"/><path fill="#bdbcbd" d="M 287.980469 71.144531 C 287.96875 71.144531 287.960938 71.144531 287.957031 71.144531 C 287.960938 71.144531 287.972656 71.144531 287.980469 71.144531 M 287.921875 71.144531 C 287.914062 71.144531 287.902344 71.144531 287.898438 71.144531 C 287.902344 71.144531 287.914062 71.144531 287.921875 71.144531 M 287.867188 71.144531 C 287.863281 71.144531 287.851562 71.144531 287.84375 71.144531 C 287.851562 71.144531 287.863281 71.144531 287.867188 71.144531 M 287.816406 71.144531 C 287.808594 71.144531 287.804688 71.144531 287.796875 71.144531 C 287.804688 71.144531 287.808594 71.144531 287.816406 71.144531 M 287.757812 71.144531 C 287.75 71.144531 287.746094 71.144531 287.738281 71.144531 C 287.746094 71.144531 287.75 71.144531 287.757812 71.144531 M 287.707031 71.144531 C 287.699219 71.144531 287.695312 71.144531 287.6875 71.144531 C 287.695312 71.144531 287.699219 71.144531 287.707031 71.144531 M 287.652344 71.144531 C 287.648438 71.144531 287.640625 71.144531 287.636719 71.144531 C 287.640625 71.144531 287.648438 71.144531 287.652344 71.144531 M 287.59375 71.144531 C 287.59375 71.144531 287.589844 71.144531 287.582031 71.144531 C 287.589844 71.144531 287.59375 71.144531 287.59375 71.144531 M 287.542969 71.144531 C 287.535156 71.144531 287.535156 71.144531 287.53125 71.144531 C 287.535156 71.144531 287.535156 71.144531 287.542969 71.144531 M 287.484375 71.144531 C 287.484375 71.144531 287.484375 71.144531 287.476562 71.144531 C 287.484375 71.144531 287.484375 71.144531 287.484375 71.144531 M 287.429688 71.144531 C 287.429688 71.144531 287.425781 71.144531 287.425781 71.144531 C 287.425781 71.144531 287.429688 71.144531 287.429688 71.144531 M 287.378906 71.136719 C 287.371094 71.136719 287.371094 71.136719 287.371094 71.136719 C 287.371094 71.136719 287.371094 71.136719 287.378906 71.136719 M 287.320312 71.136719 C 287.320312 71.136719 287.320312 71.136719 287.3125 71.136719 C 287.320312 71.136719 287.320312 71.136719 287.320312 71.136719 M 321.679688 37.433594 C 321.679688 37.421875 321.679688 37.414062 321.679688 37.410156 C 321.679688 37.414062 321.679688 37.421875 321.679688 37.433594 M 321.679688 37.375 C 321.679688 37.367188 321.679688 37.355469 321.679688 37.351562 C 321.679688 37.355469 321.679688 37.367188 321.679688 37.375 M 321.679688 37.316406 C 321.679688 37.308594 321.679688 37.304688 321.679688 37.292969 C 321.679688 37.304688 321.679688 37.308594 321.679688 37.316406 M 321.679688 37.257812 C 321.679688 37.25 321.679688 37.246094 321.679688 37.238281 C 321.679688 37.246094 321.679688 37.25 321.679688 37.257812 M 321.679688 37.203125 C 321.679688 37.199219 321.679688 37.195312 321.679688 37.1875 C 321.679688 37.195312 321.679688 37.199219 321.679688 37.203125 M 321.679688 37.148438 C 321.679688 37.140625 321.679688 37.136719 321.679688 37.128906 C 321.679688 37.136719 321.679688 37.140625 321.679688 37.148438 M 321.679688 37.089844 C 321.679688 37.082031 321.679688 37.078125 321.679688 37.078125 C 321.679688 37.078125 321.679688 37.082031 321.679688 37.089844 M 321.679688 37.03125 C 321.679688 37.023438 321.679688 37.023438 321.679688 37.019531 C 321.679688 37.023438 321.679688 37.023438 321.679688 37.03125 M 321.679688 36.972656 C 321.679688 36.972656 321.679688 36.964844 321.679688 36.960938 C 321.679688 36.964844 321.679688 36.964844 321.679688 36.972656 M 321.671875 36.914062 C 321.671875 36.90625 321.671875 36.90625 321.671875 36.90625 C 321.671875 36.90625 321.671875 36.90625 321.671875 36.914062 M 311.175781 13.089844 C 310.992188 12.914062 310.808594 12.738281 310.613281 12.570312 C 310.808594 12.738281 310.992188 12.914062 311.175781 13.089844 " fill-opacity="1" fill-rule="nonzero"/><path fill="#b27510" d="M 288.03125 71.144531 C 288.015625 71.144531 287.996094 71.144531 287.980469 71.144531 C 287.972656 71.144531 287.960938 71.144531 287.957031 71.144531 C 287.945312 71.144531 287.933594 71.144531 287.921875 71.144531 C 287.914062 71.144531 287.902344 71.144531 287.898438 71.144531 C 287.886719 71.144531 287.878906 71.144531 287.867188 71.144531 C 287.863281 71.144531 287.851562 71.144531 287.84375 71.144531 C 287.832031 71.144531 287.820312 71.144531 287.816406 71.144531 C 287.808594 71.144531 287.804688 71.144531 287.796875 71.144531 C 287.785156 71.144531 287.773438 71.144531 287.757812 71.144531 C 287.75 71.144531 287.746094 71.144531 287.738281 71.144531 C 287.726562 71.144531 287.71875 71.144531 287.707031 71.144531 C 287.699219 71.144531 287.695312 71.144531 287.6875 71.144531 C 287.675781 71.144531 287.664062 71.144531 287.652344 71.144531 C 287.648438 71.144531 287.640625 71.144531 287.636719 71.144531 C 287.625 71.144531 287.605469 71.144531 287.59375 71.144531 C 287.59375 71.144531 287.589844 71.144531 287.582031 71.144531 C 287.570312 71.144531 287.554688 71.144531 287.542969 71.144531 C 287.535156 71.144531 287.535156 71.144531 287.53125 71.144531 C 287.511719 71.144531 287.5 71.144531 287.484375 71.144531 C 287.484375 71.144531 287.484375 71.144531 287.476562 71.144531 C 287.460938 71.144531 287.449219 71.144531 287.429688 71.144531 C 287.429688 71.144531 287.425781 71.144531 287.425781 71.144531 C 287.40625 71.144531 287.394531 71.136719 287.378906 71.136719 C 287.371094 71.136719 287.371094 71.136719 287.371094 71.136719 C 287.355469 71.136719 287.335938 71.136719 287.320312 71.136719 C 287.320312 71.136719 287.320312 71.136719 287.3125 71.136719 C 287.304688 71.136719 287.285156 71.136719 287.269531 71.136719 C 278.210938 70.933594 270.019531 67.117188 264.074219 61.070312 C 266.882812 60.683594 269.683594 60.234375 272.441406 59.65625 C 276.855469 62.78125 282.242188 64.613281 288.03125 64.613281 C 302.96875 64.613281 315.140625 52.425781 315.140625 37.484375 C 315.140625 31.308594 313.058594 25.601562 309.566406 21.039062 C 310.089844 18.226562 310.433594 15.40625 310.613281 12.570312 C 310.808594 12.738281 310.992188 12.914062 311.175781 13.089844 C 317.503906 19.113281 321.515625 27.558594 321.671875 36.90625 C 321.671875 36.90625 321.671875 36.90625 321.671875 36.914062 C 321.671875 36.929688 321.671875 36.949219 321.679688 36.960938 C 321.679688 36.964844 321.679688 36.972656 321.679688 36.972656 C 321.679688 36.984375 321.679688 37 321.679688 37.019531 C 321.679688 37.023438 321.679688 37.023438 321.679688 37.03125 C 321.679688 37.042969 321.679688 37.058594 321.679688 37.078125 C 321.679688 37.078125 321.679688 37.082031 321.679688 37.089844 C 321.679688 37.101562 321.679688 37.117188 321.679688 37.128906 C 321.679688 37.136719 321.679688 37.140625 321.679688 37.148438 C 321.679688 37.160156 321.679688 37.171875 321.679688 37.1875 C 321.679688 37.195312 321.679688 37.199219 321.679688 37.203125 C 321.679688 37.214844 321.679688 37.226562 321.679688 37.238281 C 321.679688 37.246094 321.679688 37.25 321.679688 37.257812 C 321.679688 37.269531 321.679688 37.28125 321.679688 37.292969 C 321.679688 37.304688 321.679688 37.308594 321.679688 37.316406 C 321.679688 37.328125 321.679688 37.339844 321.679688 37.351562 C 321.679688 37.355469 321.679688 37.367188 321.679688 37.375 C 321.679688 37.386719 321.679688 37.398438 321.679688 37.410156 C 321.679688 37.414062 321.679688 37.421875 321.679688 37.433594 C 321.679688 37.449219 321.679688 37.46875 321.679688 37.484375 C 321.679688 56.019531 306.5625 71.144531 288.03125 71.144531 " fill-opacity="1" fill-rule="nonzero"/><path fill="#ba9744" d="M 288.03125 64.613281 C 282.242188 64.613281 276.855469 62.78125 272.441406 59.65625 C 277.199219 58.660156 281.832031 57.300781 286.160156 55.304688 L 290.398438 55.304688 L 290.398438 53.066406 C 291.390625 52.472656 292.359375 51.835938 293.304688 51.152344 C 293.671875 51.078125 294.039062 50.992188 294.394531 50.898438 C 295.667969 50.570312 296.78125 50.066406 297.742188 49.410156 C 298.710938 48.742188 299.480469 47.902344 300.046875 46.90625 C 300.535156 46.042969 300.816406 45.039062 300.878906 43.898438 C 305.867188 37.484375 307.988281 29.238281 309.5 21.394531 C 309.519531 21.277344 309.542969 21.15625 309.566406 21.039062 C 313.058594 25.601562 315.140625 31.308594 315.140625 37.484375 C 315.140625 52.425781 302.96875 64.613281 288.03125 64.613281 " fill-opacity="1" fill-rule="nonzero"/><path fill="#b27510" d="M 290.398438 55.304688 L 286.160156 55.304688 C 287.605469 54.632812 289.023438 53.890625 290.398438 53.066406 L 290.398438 55.304688 M 293.304688 51.152344 C 295.777344 49.363281 298.085938 47.253906 300.1875 44.757812 C 300.425781 44.476562 300.652344 44.191406 300.878906 43.898438 C 300.816406 45.039062 300.535156 46.042969 300.046875 46.90625 C 299.480469 47.902344 298.710938 48.742188 297.742188 49.410156 C 296.78125 50.066406 295.667969 50.570312 294.394531 50.898438 C 294.039062 50.992188 293.671875 51.078125 293.304688 51.152344 " fill-opacity="1" fill-rule="nonzero"/><g fill="#fd6155" fill-opacity="0.302"><g transform="translate(192.539151, 390.018966)"><g><path d="M 73.292969 -38.636719 C 67.738281 -22.699219 51.195312 -15.214844 36.707031 -15.214844 C 25.597656 -15.214844 19.558594 -21.128906 19.558594 -29.339844 C 19.558594 -40.085938 26.082031 -46.125 37.914062 -46.125 C 42.019531 -43.710938 45.519531 -42.621094 48.539062 -42.621094 C 55.785156 -42.621094 59.769531 -48.539062 59.769531 -54.214844 C 59.769531 -59.164062 56.75 -63.992188 49.988281 -64.234375 C 42.742188 -64.234375 39 -69.1875 39 -74.859375 C 39 -82.710938 43.46875 -88.625 51.4375 -88.625 C 55.179688 -88.625 58.800781 -85.96875 59.648438 -83.070312 C 61.335938 -77.035156 64.71875 -74.257812 68.945312 -74.257812 C 73.171875 -74.257812 77.277344 -77.15625 77.636719 -82.46875 C 78.363281 -95.265625 66.890625 -104.804688 51.800781 -104.804688 C 34.53125 -104.804688 19.558594 -91.039062 19.558594 -74.378906 C 19.558594 -69.304688 21.25 -64.839844 24.269531 -61.21875 C 6.277344 -57.835938 -0.242188 -41.171875 -0.242188 -28.375 C -0.242188 -12.074219 14.246094 0 36.34375 0 C 58.921875 0 80.898438 -12.917969 87.902344 -35.859375 C 88.261719 -36.828125 88.382812 -37.792969 88.382812 -38.636719 C 88.382812 -42.863281 85.003906 -45.15625 81.382812 -45.15625 C 78 -45.15625 74.5 -43.105469 73.292969 -38.636719 Z M 73.292969 -38.636719 "/></g></g></g><g fill="#fd6155" fill-opacity="0.302"><g transform="translate(260.396815, 390.018966)"><g><path d="M 59.886719 -104.804688 C 47.933594 -104.804688 35.859375 -98.042969 31.875 -85.847656 C 31.152344 -83.433594 30.667969 -81.140625 30.667969 -78.84375 C 30.667969 -68.339844 37.914062 -60.371094 44.796875 -51.917969 C 50.46875 -45.039062 55.785156 -39.363281 55.785156 -32.117188 C 55.785156 -22.335938 47.210938 -16.421875 39.363281 -16.421875 C 30.667969 -16.542969 23.785156 -21.613281 23.90625 -30.1875 C 24.027344 -30.789062 24.027344 -31.394531 24.027344 -31.875 C 24.027344 -38.757812 19.441406 -41.898438 14.730469 -41.898438 C 9.902344 -41.898438 4.949219 -38.394531 4.949219 -31.632812 C 4.347656 -12.4375 21.25 0 39.484375 0 C 58.800781 0 76.308594 -15.214844 76.308594 -33.808594 C 76.308594 -46.367188 67.976562 -56.023438 60.613281 -64.234375 L 59.164062 -65.804688 C 54.574219 -70.753906 50.953125 -76.1875 50.953125 -80.65625 C 50.953125 -85.96875 57.113281 -88.261719 59.886719 -88.140625 C 63.632812 -87.902344 66.289062 -85.246094 68.339844 -81.140625 C 69.910156 -77.394531 73.050781 -75.707031 76.308594 -75.707031 C 80.65625 -75.707031 85.003906 -78.964844 85.003906 -84.519531 C 85.003906 -85.726562 84.882812 -86.8125 84.519531 -88.140625 C 81.742188 -97.558594 72.203125 -104.804688 59.886719 -104.804688 Z M 59.886719 -104.804688 "/></g></g></g><g fill="#fd6155" fill-opacity="0.502"><g transform="translate(188.06026, 382.851222)"><g><path d="M 73.292969 -38.636719 C 67.738281 -22.699219 51.195312 -15.214844 36.707031 -15.214844 C 25.597656 -15.214844 19.558594 -21.128906 19.558594 -29.339844 C 19.558594 -40.085938 26.082031 -46.125 37.914062 -46.125 C 42.019531 -43.710938 45.519531 -42.621094 48.539062 -42.621094 C 55.785156 -42.621094 59.769531 -48.539062 59.769531 -54.214844 C 59.769531 -59.164062 56.75 -63.992188 49.988281 -64.234375 C 42.742188 -64.234375 39 -69.1875 39 -74.859375 C 39 -82.710938 43.46875 -88.625 51.4375 -88.625 C 55.179688 -88.625 58.800781 -85.96875 59.648438 -83.070312 C 61.335938 -77.035156 64.71875 -74.257812 68.945312 -74.257812 C 73.171875 -74.257812 77.277344 -77.15625 77.636719 -82.46875 C 78.363281 -95.265625 66.890625 -104.804688 51.800781 -104.804688 C 34.53125 -104.804688 19.558594 -91.039062 19.558594 -74.378906 C 19.558594 -69.304688 21.25 -64.839844 24.269531 -61.21875 C 6.277344 -57.835938 -0.242188 -41.171875 -0.242188 -28.375 C -0.242188 -12.074219 14.246094 0 36.34375 0 C 58.921875 0 80.898438 -12.917969 87.902344 -35.859375 C 88.261719 -36.828125 88.382812 -37.792969 88.382812 -38.636719 C 88.382812 -42.863281 85.003906 -45.15625 81.382812 -45.15625 C 78 -45.15625 74.5 -43.105469 73.292969 -38.636719 Z M 73.292969 -38.636719 "/></g></g></g><g fill="#fd6155" fill-opacity="0.502"><g transform="translate(255.917924, 382.851222)"><g><path d="M 59.886719 -104.804688 C 47.933594 -104.804688 35.859375 -98.042969 31.875 -85.847656 C 31.152344 -83.433594 30.667969 -81.140625 30.667969 -78.84375 C 30.667969 -68.339844 37.914062 -60.371094 44.796875 -51.917969 C 50.46875 -45.039062 55.785156 -39.363281 55.785156 -32.117188 C 55.785156 -22.335938 47.210938 -16.421875 39.363281 -16.421875 C 30.667969 -16.542969 23.785156 -21.613281 23.90625 -30.1875 C 24.027344 -30.789062 24.027344 -31.394531 24.027344 -31.875 C 24.027344 -38.757812 19.441406 -41.898438 14.730469 -41.898438 C 9.902344 -41.898438 4.949219 -38.394531 4.949219 -31.632812 C 4.347656 -12.4375 21.25 0 39.484375 0 C 58.800781 0 76.308594 -15.214844 76.308594 -33.808594 C 76.308594 -46.367188 67.976562 -56.023438 60.613281 -64.234375 L 59.164062 -65.804688 C 54.574219 -70.753906 50.953125 -76.1875 50.953125 -80.65625 C 50.953125 -85.96875 57.113281 -88.261719 59.886719 -88.140625 C 63.632812 -87.902344 66.289062 -85.246094 68.339844 -81.140625 C 69.910156 -77.394531 73.050781 -75.707031 76.308594 -75.707031 C 80.65625 -75.707031 85.003906 -78.964844 85.003906 -84.519531 C 85.003906 -85.726562 84.882812 -86.8125 84.519531 -88.140625 C 81.742188 -97.558594 72.203125 -104.804688 59.886719 -104.804688 Z M 59.886719 -104.804688 "/></g></g></g><g fill="#451e60" fill-opacity="1"><g transform="translate(183.581368, 375.683508)"><g><path d="M 73.292969 -38.636719 C 67.738281 -22.699219 51.195312 -15.214844 36.707031 -15.214844 C 25.597656 -15.214844 19.558594 -21.128906 19.558594 -29.339844 C 19.558594 -40.085938 26.082031 -46.125 37.914062 -46.125 C 42.019531 -43.710938 45.519531 -42.621094 48.539062 -42.621094 C 55.785156 -42.621094 59.769531 -48.539062 59.769531 -54.214844 C 59.769531 -59.164062 56.75 -63.992188 49.988281 -64.234375 C 42.742188 -64.234375 39 -69.1875 39 -74.859375 C 39 -82.710938 43.46875 -88.625 51.4375 -88.625 C 55.179688 -88.625 58.800781 -85.96875 59.648438 -83.070312 C 61.335938 -77.035156 64.71875 -74.257812 68.945312 -74.257812 C 73.171875 -74.257812 77.277344 -77.15625 77.636719 -82.46875 C 78.363281 -95.265625 66.890625 -104.804688 51.800781 -104.804688 C 34.53125 -104.804688 19.558594 -91.039062 19.558594 -74.378906 C 19.558594 -69.304688 21.25 -64.839844 24.269531 -61.21875 C 6.277344 -57.835938 -0.242188 -41.171875 -0.242188 -28.375 C -0.242188 -12.074219 14.246094 0 36.34375 0 C 58.921875 0 80.898438 -12.917969 87.902344 -35.859375 C 88.261719 -36.828125 88.382812 -37.792969 88.382812 -38.636719 C 88.382812 -42.863281 85.003906 -45.15625 81.382812 -45.15625 C 78 -45.15625 74.5 -43.105469 73.292969 -38.636719 Z M 73.292969 -38.636719 "/></g></g></g><g fill="#451e60" fill-opacity="1"><g transform="translate(251.439032, 375.683508)"><g><path d="M 59.886719 -104.804688 C 47.933594 -104.804688 35.859375 -98.042969 31.875 -85.847656 C 31.152344 -83.433594 30.667969 -81.140625 30.667969 -78.84375 C 30.667969 -68.339844 37.914062 -60.371094 44.796875 -51.917969 C 50.46875 -45.039062 55.785156 -39.363281 55.785156 -32.117188 C 55.785156 -22.335938 47.210938 -16.421875 39.363281 -16.421875 C 30.667969 -16.542969 23.785156 -21.613281 23.90625 -30.1875 C 24.027344 -30.789062 24.027344 -31.394531 24.027344 -31.875 C 24.027344 -38.757812 19.441406 -41.898438 14.730469 -41.898438 C 9.902344 -41.898438 4.949219 -38.394531 4.949219 -31.632812 C 4.347656 -12.4375 21.25 0 39.484375 0 C 58.800781 0 76.308594 -15.214844 76.308594 -33.808594 C 76.308594 -46.367188 67.976562 -56.023438 60.613281 -64.234375 L 59.164062 -65.804688 C 54.574219 -70.753906 50.953125 -76.1875 50.953125 -80.65625 C 50.953125 -85.96875 57.113281 -88.261719 59.886719 -88.140625 C 63.632812 -87.902344 66.289062 -85.246094 68.339844 -81.140625 C 69.910156 -77.394531 73.050781 -75.707031 76.308594 -75.707031 C 80.65625 -75.707031 85.003906 -78.964844 85.003906 -84.519531 C 85.003906 -85.726562 84.882812 -86.8125 84.519531 -88.140625 C 81.742188 -97.558594 72.203125 -104.804688 59.886719 -104.804688 Z M 59.886719 -104.804688 "/></g></g></g></svg>